<?xml version="1.0" encoding="utf-8"?>
<!-- Generator: Adobe Illustrator 16.0.0, SVG Export Plug-In . SVG Version: 6.00 Build 0)  -->
<!DOCTYPE svg PUBLIC "-//W3C//DTD SVG 1.1//EN" "http://www.w3.org/Graphics/SVG/1.1/DTD/svg11.dtd">
<svg version="1.1" id="Layer_1" xmlns="http://www.w3.org/2000/svg" xmlns:xlink="http://www.w3.org/1999/xlink" x="0px" y="0px"
	 width="100px" height="100px" viewBox="0 0 100 100" enable-background="new 0 0 100 100" xml:space="preserve">
<g>
	<path fill="#F9F1D5" d="M85.637,46.759c0,19.683-15.959,35.635-35.638,35.635S14.363,66.441,14.363,46.759
		c0-19.676,15.956-35.634,35.635-35.634S85.637,27.083,85.637,46.759"/>
	<path fill="#F9F1D5" d="M24.251,71.394c0,0,6.255,5.949,11.25,9.033c0,0,8.239,5.778,14.497,8.448c0,0,19.11-10.833,20.848-13.31
		L24.251,71.394z"/>
	<path fill="#892020" d="M81.464,46.759c0,17.384-14.084,31.468-31.465,31.468c-17.379,0-31.466-14.084-31.466-31.468
		c0-17.378,14.087-31.466,31.466-31.466C67.38,15.293,81.464,29.381,81.464,46.759"/>
	<path fill="#FBFCFF" d="M38.71,32.933h20.892c0,0,5.341,1.941,0,8.585L50.68,54.02h11.037l-0.031,3.977
		c0,0-0.029,2.983-3.354,2.666H38.71v-3.674c0,0-0.051-2.838,2.097-4.82l9.481-12.731l-8.926,0.03c0,0-2.541,0.26-2.575-3.685
		L38.71,32.933z"/>
	<rect x="38.281" y="32.574" fill="#892020" width="0.486" height="2.918"/>
</g>
</svg>
